<svg xmlns="http://www.w3.org/2000/svg" viewBox="0 0 232.37 228.55"><defs></defs><g id="Capa_1-2" data-name="Capa 1"><g><path class="cls-1" d="m67.32,182.44c-1.51-5.58-2.94-10.92-4.39-16.25-3.34-12.33-6.64-24.67-10.06-36.97-.5-1.79-.27-2.62,1.48-3.44,8.21-3.87,16.25-8.11,24.53-11.79,6.01-2.67,12.52-3.71,19.1-3.74,17.74-.09,35.48-.09,53.22-.03,7.27.03,12.98,5.57,13.17,12.51.19,7.17-5.12,12.83-12.53,13.41-5.45.43-10.9.89-16.35,1.43-5.4.53-8.6,4.19-8.09,9.11.56,5.37,4.35,8.24,10,7.69,6.23-.61,12.54-.74,18.7-1.77,12.48-2.11,20.48-9.61,24.14-21.68.52-1.71,1.2-2.58,3.01-3.05,10.31-2.7,20.57-5.63,30.87-8.36,5.12-1.36,10.34.9,12.99,5.35,2.62,4.4,2.17,9.94-1.3,13.76-1.04,1.15-2.38,2.12-3.75,2.87-23.08,12.55-46.2,25.01-69.27,37.56-9,4.9-18.29,5.82-28.12,2.93-11.07-3.26-22.2-6.33-33.34-9.33-1.37-.37-3.16-.21-4.45.38-6.47,2.97-12.84,6.16-19.55,9.42Z" fill="white"></path><path class="cls-1" d="m87.56,0c14.24.69,27.01,8.26,35,23.41.84,1.59,1.75,2.02,3.44,2.02,27.8-.05,55.6-.06,83.4.03,1.51,0,3.26.66,4.47,1.58,5.68,4.33,11.22,8.85,16.79,13.32,2.25,1.8,2.26,2.15.05,3.92-5.78,4.63-11.57,9.26-17.37,13.88-2.15,1.72-9.27,1.65-11.44-.09-3.93-3.14-7.83-6.31-11.78-9.42-2.72-2.14-4.16-1.83-5.87,1.22-1.38,2.46-2.69,4.96-4.1,7.4-1.35,2.34-2.56,2.55-4.65.79-3.71-3.12-7.37-6.31-11.08-9.44-2.43-2.05-3.91-1.84-5.61.79-1.58,2.44-3.16,4.89-4.62,7.41-1.04,1.8-2.41,2.55-4.52,2.52-7.85-.09-15.71.02-23.56-.08-1.81-.02-2.76.49-3.61,2.17-7.83,15.58-24.83,24.99-41.56,23.13-18.26-2.03-32.68-14.32-37.21-31.73C36.8,26.13,57.25-.19,87.56,0Zm-2.77,42.28c-.03-6.92-5.71-12.59-12.64-12.63-7.03-.03-12.79,5.73-12.76,12.76.03,6.92,5.72,12.6,12.63,12.63,7.03.03,12.8-5.74,12.76-12.77Z" fill="white"></path><path class="cls-1" d="m.05,228.55v-2.81C.05,197.95.07,170.15,0,142.35c0-2.01.67-2.9,2.44-3.68,8.64-3.77,17.22-7.68,25.83-11.54,4.14-1.85,6.23-.88,7.43,3.54,5.87,21.59,11.73,43.19,17.58,64.79.91,3.38.38,4.93-2.43,6.42-16.42,8.73-32.87,17.41-49.31,26.11-.37.2-.78.3-1.49.57Z" fill="white"></path></g></g></svg>