<svg xmlns="http://www.w3.org/2000/svg" viewBox="0 0 240.41 223.07"><defs></defs><g id="Capa_1-2" data-name="Capa 1"><g id="uoZBGL.tif"><path class="cls-1" d="m206.04,128.72v3.48c0,28.23,0,56.45,0,84.68,0,4.93-1.25,6.19-6.15,6.19-53.09,0-106.19,0-159.28,0-4.95,0-6.21-1.24-6.21-6.13,0-28.23,0-56.45,0-84.68v-3.53c-5.4,0-10.64.11-15.87-.02-8.03-.2-13.73-4.11-16.9-11.45-3.25-7.54-1.55-15.41,4.45-21.08,8.83-8.35,17.68-16.68,26.58-24.95,1.29-1.2,1.78-2.42,1.77-4.16-.06-21.26-.04-42.52-.04-63.78V.23h34.17v37.01c1.14-1.02,1.77-1.55,2.36-2.11,9.37-8.81,18.72-17.66,28.12-26.45,12.26-11.47,29.9-11.64,42.14-.17,31.17,29.2,62.25,58.49,93.32,87.8,7.89,7.44,7.83,19.72.04,27.27-3.49,3.39-7.71,5.09-12.57,5.13-5.18.04-10.35,0-15.93,0Zm-77.29,25.73c-1.21,0-2.17,0-3.13,0-7.42,0-14.84-.04-22.25.01-5.07.04-8.82,3.68-8.87,8.46-.05,4.87,3.77,8.59,8.96,8.66,2.65.04,5.31,0,8.25,0v8.36h17.2v-8.36c1.25,0,2.31,0,3.36,0,8.22-.05,13.65-5.4,13.69-13.55.03-5.36.04-10.72,0-16.08-.07-7.7-5.51-13.17-13.18-13.24-5.54-.05-11.08-.01-16.62-.01-1.47,0-2.95,0-4.36,0v-8.59c1.11,0,2.07,0,3.04,0,7.42,0,14.84.04,22.25-.02,5.05-.04,8.83-3.71,8.88-8.47.05-4.87-3.78-8.58-8.97-8.65-2.65-.04-5.31,0-8.25,0v-8.58c-3.05,0-5.81,0-8.57,0s-5.63,0-8.63,0v8.58c-1.25,0-2.31,0-3.36,0-8.22.05-13.64,5.4-13.68,13.55-.03,5.36-.04,10.72,0,16.08.06,7.68,5.52,13.16,13.19,13.23,5.63.05,11.26.01,16.89.01,1.38,0,2.77,0,4.18,0v8.59Z" fill="white"></path></g></g></svg>